# xmcd CD database file
#
# Track frame offsets:
#	150
#	13879
#	34263
#	50932
#	63389
#	85665
#	106038
#	124526
#	138592
#	158870
#	186047
#	201954
#
# Disc length: 2953 seconds
#
# Revision: 5
# Processed by: cddbd v1.5.2PL0 Copyright (c) Steve Scherf et al.
# Submitted via: CDex 1.79
#
DISCID=a50b870c
DTITLE=Cheryl Desere'e - Cheryl Desere'e for MusicBrainz and FreeDB
DYEAR=2016
DGENRE=Country
TTITLE0=Cheryl Desere'e - Pillow Talkin'
TTITLE1=Cheryl Desere'e - Cactus Flower
TTITLE2=Cheryl Desere'e - Diamond Valley R.V.
TTITLE3=Cheryl Desere'e - Stage Door Jenny
TTITLE4=Cheryl Desere'e - Keep My Name Off Your Lips
TTITLE5=Cheryl Desere'e - Rabbit Hole
TTITLE6=Cheryl Desere'e - Loving Beyond My Means
TTITLE7=Cheryl Desere'e - Last Night's Face
TTITLE8=Cheryl Desere'e - Sin Eater
TTITLE9=Cheryl Desere'e - Wildfire
TTITLE10=Cheryl Desere'e - Eye Candy
TTITLE11=Cheryl Desere'e and Benjamin Douglas - Don't Look Now
EXTD=YEAR: 2016
EXTT0=
EXTT1=
EXTT2=
EXTT3=
EXTT4=
EXTT5=
EXTT6=
EXTT7=
EXTT8=
EXTT9=
EXTT10=
EXTT11=
PLAYORDER=
